<?xml version="1.0" encoding="iso-8859-1"?>
<!-- Generator: Adobe Illustrator 19.0.0, SVG Export Plug-In . SVG Version: 6.00 Build 0)  -->
<svg version="1.1" id="Layer_1" xmlns="http://www.w3.org/2000/svg" xmlns:xlink="http://www.w3.org/1999/xlink" x="0px" y="0px"
	 viewBox="0 0 512 512" style="enable-background:new 0 0 512 512;" xml:space="preserve">
<g>
	<path style="fill:#F7DC4D;" d="M405.3,236.799h-94.807c-9.275,0-16.795-7.52-16.795-16.795c0-9.275,7.52-16.795,16.795-16.795
		H405.3c9.275,0,16.795,7.52,16.795,16.795C422.095,229.279,414.576,236.799,405.3,236.799z"/>
	<path style="fill:#F7DC4D;" d="M405.3,292.52h-94.807c-9.275,0-16.795-7.52-16.795-16.795s7.52-16.795,16.795-16.795H405.3
		c9.275,0,16.795,7.52,16.795,16.795S414.576,292.52,405.3,292.52z"/>
	<path style="fill:#F7DC4D;" d="M405.3,348.241h-94.807c-9.275,0-16.795-7.52-16.795-16.795s7.52-16.795,16.795-16.795H405.3
		c9.275,0,16.795,7.52,16.795,16.795S414.576,348.241,405.3,348.241z"/>
	<path style="fill:#F7DC4D;" d="M405.3,403.964h-94.807c-9.275,0-16.795-7.52-16.795-16.795s7.52-16.795,16.795-16.795H405.3
		c9.275,0,16.795,7.52,16.795,16.795S414.576,403.964,405.3,403.964z"/>
</g>
<g>
	<path style="fill:#FF8600;" d="M405.3,203.209h-52.036v33.59H405.3c9.275,0,16.795-7.52,16.795-16.795
		C422.095,210.728,414.576,203.209,405.3,203.209z"/>
	<path style="fill:#FF8600;" d="M405.3,258.929h-52.036v33.59H405.3c9.275,0,16.795-7.52,16.795-16.795
		S414.576,258.929,405.3,258.929z"/>
	<path style="fill:#FF8600;" d="M405.3,314.651h-52.036v33.59H405.3c9.275,0,16.795-7.52,16.795-16.795
		S414.576,314.651,405.3,314.651z"/>
	<path style="fill:#FF8600;" d="M405.3,370.374h-52.036v33.59H405.3c9.275,0,16.795-7.52,16.795-16.795
		S414.576,370.374,405.3,370.374z"/>
</g>
<path style="fill:#797882;" d="M405.3,493.295c-9.275,0-16.795-7.52-16.795-16.795V64.815c0-6.978-5.678-12.656-12.656-12.656
	H245.136c-6.978,0-12.656,5.678-12.656,12.656V476.5c0,9.275-7.52,16.795-16.795,16.795c-9.275,0-16.795-7.52-16.795-16.795V64.815
	c0-25.5,20.746-46.246,46.246-46.246h130.713c25.5,0,46.246,20.746,46.246,46.246V476.5
	C422.095,485.776,414.576,493.295,405.3,493.295z"/>
<path style="fill:#2D2E30;" d="M375.849,18.569h-65.357v33.59h65.357c6.978,0,12.656,5.678,12.656,12.656V476.5
	c0,9.275,7.52,16.795,16.795,16.795s16.795-7.52,16.795-16.795V64.815C422.095,39.316,401.349,18.569,375.849,18.569z"/>
<path style="fill:#3E3E42;" d="M310.492,493.295c-9.275,0-16.795-7.52-16.795-16.795V144.908c0-9.275,7.52-16.795,16.795-16.795
	s16.795,7.52,16.795,16.795V476.5C327.287,485.776,319.768,493.295,310.492,493.295z"/>
<path style="fill:#B5750E;" d="M405.3,426.095h-52.036v33.59H405.3c9.275,0,16.795-7.52,16.795-16.795
	S414.576,426.095,405.3,426.095z"/>
<path style="fill:#E61F00;" d="M511.43,463.924c3.497-19.477-9.459-38.1-28.936-41.596c-33.406-5.996-141.458-34.195-239.854-72.209
	c-54.741-21.148-97.881-41.899-128.224-61.677c-35.045-22.844-42.747-38.103-42.757-42.054
	c-0.131-50.907,93.605-66.963,157.275-68.179h186.94c10.247,0,18.555-8.307,18.555-18.555v-29.49
	c0-10.247-8.307-18.555-18.555-18.555H228.91c-35.291,0.49-61.406-0.671-113.413,13.492c-31.025,8.449-55.938,21.648-74.617,37.226
	C14.052,184.698-0.084,213.831,0,246.571c0.092,35.608,24.718,68.941,75.286,101.902c34.521,22.501,82.137,45.544,141.529,68.49
	c104.141,40.233,216.178,69.284,253.019,75.897c2.141,0.384,4.27,0.57,6.371,0.57C493.222,493.43,508.32,481.26,511.43,463.924z"/>
<g>
	<path style="fill:#9D2217;" d="M198.89,179.81c10.409-0.906,20.562-1.42,30.047-1.6h186.94c10.247,0,18.555-8.307,18.555-18.555
		v-29.49c0-10.247-8.307-18.555-18.555-18.555H228.91c-10.512,0.146-20.211,0.148-30.022,0.45v67.751H198.89z"/>
	<path style="fill:#9D2217;" d="M482.495,422.328c-33.406-5.996-141.458-34.195-239.854-72.209
		c-15.528-5.998-30.119-11.966-43.752-17.887v77.655c5.853,2.359,11.825,4.718,17.927,7.076
		c104.141,40.233,216.178,69.284,253.019,75.897c2.141,0.384,4.27,0.57,6.371,0.57c17.016,0,32.113-12.17,35.224-29.506
		C514.927,444.447,501.971,425.825,482.495,422.328z"/>
</g>
<g>
</g>
<g>
</g>
<g>
</g>
<g>
</g>
<g>
</g>
<g>
</g>
<g>
</g>
<g>
</g>
<g>
</g>
<g>
</g>
<g>
</g>
<g>
</g>
<g>
</g>
<g>
</g>
<g>
</g>
</svg>
